<svg width="28" height="26" viewBox="0 0 28 26" fill="none" xmlns="http://www.w3.org/2000/svg">
<path d="M27.28 8.36C27.28 7.07637 26.7702 5.84532 25.8625 4.93753C24.9547 4.02988 23.7237 3.52 22.44 3.52H16.302L12.2628 0.290469C12.0294 0.103125 11.7392 0.000718667 11.44 0H3.96C2.90968 0 1.90252 0.417229 1.15988 1.15988C0.41723 1.90252 0 2.90972 0 3.96V20.68C0 21.9636 0.509887 23.1947 1.41753 24.1025C2.32533 25.0101 3.55637 25.52 4.84 25.52H22.44C23.7236 25.52 24.9547 25.0101 25.8625 24.1025C26.7701 23.1947 27.28 21.9636 27.28 20.68L27.28 8.36ZM2.64004 3.96C2.64004 3.60994 2.77911 3.27422 3.02661 3.02657C3.27426 2.77907 3.60998 2.64 3.96004 2.64H10.978L13.728 4.84L10.978 7.04H3.96004C3.60998 7.04 3.27426 6.90092 3.02661 6.65342C2.77911 6.40578 2.64004 6.07005 2.64004 5.72V3.96ZM24.64 20.68C24.64 21.2635 24.4083 21.8231 23.9957 22.2356C23.5832 22.6483 23.0236 22.88 22.44 22.88H4.84004C4.25652 22.88 3.69692 22.6483 3.28442 22.2356C2.87177 21.8231 2.64004 21.2635 2.64004 20.68V9.4908L3.16796 9.59635C3.4285 9.65078 3.69391 9.67886 3.96004 9.68H11.44C11.7392 9.67928 12.0294 9.57687 12.2629 9.38953L16.3021 6.16H22.4401C23.0236 6.16 23.5832 6.39175 23.9957 6.80438C24.4083 7.21688 24.6401 7.77649 24.6401 8.36L24.64 20.68Z" fill="#407BFF"/>
</svg>
