<svg width="18" height="22" viewBox="0 0 18 22" fill="none" xmlns="http://www.w3.org/2000/svg">
<path d="M5.645 19C5.86103 19.7219 6.30417 20.3549 6.90858 20.8049C7.513 21.255 8.24645 21.498 9 21.498C9.75355 21.498 10.487 21.255 11.0914 20.8049C11.6958 20.3549 12.139 19.7219 12.355 19H5.645ZM0 18H18V15L16 12V7C16 6.08075 15.8189 5.1705 15.4672 4.32122C15.1154 3.47194 14.5998 2.70026 13.9497 2.05025C13.2997 1.40024 12.5281 0.884626 11.6788 0.532843C10.8295 0.18106 9.91925 0 9 0C8.08075 0 7.17049 0.18106 6.32122 0.532843C5.47194 0.884626 4.70026 1.40024 4.05025 2.05025C3.40024 2.70026 2.88463 3.47194 2.53284 4.32122C2.18106 5.1705 2 6.08075 2 7V12L0 15V18Z" fill="black"/>
</svg>
