<svg width="237" height="239" viewBox="0 0 237 239" fill="none" xmlns="http://www.w3.org/2000/svg">
<path opacity="0.6" d="M93.1447 88.1829C93.1326 86.566 92.5737 85.0014 91.5592 83.7447C90.5448 82.4881 89.1348 81.6135 87.5594 81.2638L36.9097 70.0171C35.0626 69.607 33.1279 69.949 31.5312 70.9678C29.9345 71.9866 28.8066 73.5989 28.3956 75.4499L3.34383 188.271C2.93283 190.122 3.27239 192.06 4.28783 193.659C5.30327 195.258 6.9114 196.387 8.75846 196.797L169.571 232.505C171.419 232.915 173.353 232.573 174.95 231.554C176.547 230.536 177.674 228.923 178.085 227.072L199.129 132.302C199.54 130.451 199.201 128.512 198.185 126.914C197.17 125.315 195.562 124.186 193.715 123.776L106.185 104.34C102.507 103.524 99.214 101.482 96.8453 98.5471C94.4767 95.6123 93.1721 91.9586 93.1447 88.1829Z" fill="black"/>
<path d="M91.3503 88.177C91.3382 86.5601 90.7792 84.9956 89.7648 83.7389C88.7504 82.4822 87.3403 81.6076 85.765 81.2579L35.1152 70.0113C33.2682 69.6011 31.3335 69.9431 29.7368 70.9619C28.1401 71.9808 27.0122 73.593 26.6012 75.444L1.5494 188.265C1.13839 190.116 1.47796 192.054 2.4934 193.653C3.50884 195.252 5.11697 196.381 6.96403 196.791L167.777 232.499C169.624 232.909 171.559 232.567 173.155 231.549C174.752 230.53 175.88 228.917 176.291 227.066L197.335 132.296C197.746 130.445 197.406 128.507 196.391 126.908C195.375 125.309 193.767 124.18 191.92 123.77L104.391 104.334C100.712 103.518 97.4195 101.476 95.0509 98.5412C92.6823 95.6065 91.3777 91.9528 91.3503 88.177Z" fill="#407BFF"/>
<path opacity="0.22" d="M106.166 54.5977L107.427 70.2499C107.589 72.2424 108.534 74.0882 110.055 75.3819C111.575 76.6756 113.546 77.3115 115.535 77.1498L131.152 75.8707L106.166 54.5977Z" fill="#407BFF"/>
<path d="M106.167 54.5976L50.3429 59.1721C49.3578 59.2513 48.3977 59.5242 47.5177 59.9753C46.6376 60.4265 45.8548 61.047 45.2141 61.8013C44.5733 62.5556 44.0872 63.429 43.7834 64.3714C43.4797 65.3138 43.3644 66.3069 43.444 67.2937L51.7823 170.659C51.8618 171.646 52.1346 172.607 52.5851 173.488C53.0356 174.369 53.655 175.152 54.4079 175.793C55.1607 176.434 56.0324 176.92 56.973 177.223C57.9135 177.526 58.9047 177.64 59.8897 177.559L131.337 171.707C132.321 171.627 133.281 171.353 134.16 170.902C135.04 170.45 135.822 169.829 136.462 169.075C137.102 168.321 137.588 167.447 137.891 166.505C138.194 165.563 138.309 164.57 138.229 163.584L131.133 75.8665L106.167 54.5976Z" fill="#407BFF"/>
<path opacity="0.8" d="M106.167 54.5976L50.3429 59.1721C49.3578 59.2513 48.3977 59.5242 47.5177 59.9753C46.6376 60.4265 45.8548 61.047 45.2141 61.8013C44.5733 62.5556 44.0872 63.429 43.7834 64.3714C43.4797 65.3138 43.3644 66.3069 43.444 67.2937L51.7823 170.659C51.8618 171.646 52.1346 172.607 52.5851 173.488C53.0356 174.369 53.655 175.152 54.4079 175.793C55.1607 176.434 56.0324 176.92 56.973 177.223C57.9135 177.526 58.9047 177.64 59.8897 177.559L131.337 171.707C132.321 171.627 133.281 171.353 134.16 170.902C135.04 170.45 135.822 169.829 136.462 169.075C137.102 168.321 137.588 167.447 137.891 166.505C138.194 165.563 138.309 164.57 138.229 163.584L131.133 75.8665L106.167 54.5976Z" fill="white"/>
<g opacity="0.28">
<path d="M111.61 162.892L65.1656 166.693C64.2973 166.763 63.4372 166.485 62.7732 165.921C62.1092 165.357 61.6953 164.552 61.6222 163.683C61.5556 162.813 61.835 161.953 62.3995 161.288C62.9639 160.624 63.7676 160.211 64.6349 160.138L111.081 156.33C111.95 156.261 112.81 156.54 113.474 157.105C114.138 157.67 114.551 158.477 114.623 159.347C114.689 160.216 114.41 161.077 113.845 161.741C113.281 162.406 112.477 162.819 111.61 162.892Z" fill="#407BFF"/>
</g>
<g opacity="0.28">
<path d="M82.3697 73.5667L57.8081 75.5759C56.9402 75.6438 56.081 75.3656 55.4174 74.8018C54.7538 74.2381 54.3395 73.4343 54.2646 72.5654C54.1981 71.6952 54.4775 70.8335 55.0421 70.1683C55.6067 69.503 56.4107 69.088 57.2788 69.0139L81.8404 67.0046C82.7091 66.9332 83.5702 67.2101 84.2346 67.7746C84.899 68.3391 85.3124 69.1449 85.3839 70.0151C85.4504 70.8853 85.171 71.747 84.6064 72.4123C84.0418 73.0775 83.2378 73.4925 82.3697 73.5667Z" fill="#407BFF"/>
</g>
<g opacity="0.28">
<path d="M99.4473 85.2749L58.8495 88.5967C57.9842 88.6607 57.129 88.3803 56.4695 87.8162C55.8099 87.2522 55.3992 86.4502 55.3264 85.5841C55.2576 84.7151 55.5354 83.8539 56.0989 83.1892C56.6624 82.5244 57.4657 82.1103 58.3328 82.0375L98.9307 78.7157C99.799 78.6461 100.659 78.9236 101.323 79.4877C101.987 80.0519 102.401 80.8567 102.474 81.7262C102.538 82.5976 102.256 83.4594 101.689 84.124C101.122 84.7886 100.317 85.2023 99.4473 85.2749Z" fill="#407BFF"/>
</g>
<g opacity="0.28">
<path d="M119.151 96.7664L59.911 101.588C59.0437 101.657 58.1844 101.38 57.5214 100.816C56.8584 100.252 56.4458 99.4473 56.3739 98.5785C56.3069 97.7091 56.5853 96.8479 57.1486 96.1825C57.7119 95.5171 58.5145 95.1013 59.3818 95.0255L118.622 90.2044C119.489 90.1364 120.347 90.4146 121.01 90.9782C121.672 91.5419 122.085 92.3453 122.159 93.2134C122.228 94.0833 121.95 94.9453 121.386 95.6111C120.823 96.2769 120.019 96.6923 119.151 96.7664Z" fill="#407BFF"/>
</g>
<g opacity="0.28">
<path d="M120.201 109.783L85.7588 112.607C84.891 112.675 84.0322 112.395 83.3697 111.83C82.7073 111.265 82.295 110.461 82.2231 109.592C82.156 108.723 82.4344 107.863 82.9976 107.198C83.5608 106.534 84.363 106.119 85.2295 106.045L119.671 103.221C120.54 103.155 121.399 103.435 122.062 103.999C122.725 104.564 123.139 105.368 123.214 106.237C123.28 107.107 123.001 107.967 122.436 108.632C121.872 109.296 121.068 109.71 120.201 109.783Z" fill="#407BFF"/>
</g>
<g opacity="0.28">
<path d="M69.9654 113.9L60.9595 114.637C60.0913 114.706 59.2311 114.429 58.5671 113.865C57.9031 113.301 57.4893 112.496 57.4161 111.626C57.3478 110.756 57.6266 109.893 58.1916 109.227C58.7565 108.562 59.5615 108.147 60.4303 108.075L69.4361 107.338C70.304 107.27 71.1632 107.548 71.8269 108.112C72.4905 108.676 72.9048 109.48 72.9796 110.349C73.0444 111.218 72.7644 112.079 72.2001 112.744C71.6358 113.409 70.8329 113.824 69.9654 113.9Z" fill="#407BFF"/>
</g>
<g opacity="0.28">
<path d="M121.255 122.806L62.0079 127.659C61.1401 127.726 60.2813 127.447 59.6188 126.882C58.9564 126.317 58.5442 125.512 58.4722 124.643C58.4034 123.774 58.6812 122.913 59.2447 122.248C59.8082 121.584 60.6115 121.169 61.4786 121.097L120.726 116.244C121.593 116.176 122.451 116.454 123.114 117.018C123.776 117.581 124.189 118.385 124.263 119.253C124.332 120.123 124.054 120.985 123.49 121.65C122.926 122.316 122.123 122.732 121.255 122.806Z" fill="#407BFF"/>
</g>
<g opacity="0.28">
<path d="M99.4401 137.694L63.057 140.674C62.19 140.742 61.3317 140.464 60.6691 139.9C60.0065 139.336 59.5935 138.533 59.5199 137.665C59.4529 136.795 59.7313 135.934 60.2946 135.269C60.8579 134.603 61.6605 134.188 62.5277 134.112L98.9108 131.132C99.7794 131.065 100.639 131.344 101.303 131.909C101.966 132.474 102.38 133.279 102.453 134.149C102.521 135.019 102.242 135.881 101.678 136.545C101.113 137.21 100.308 137.623 99.4401 137.694Z" fill="#407BFF"/>
</g>
<g opacity="0.28">
<path d="M122.302 135.828L112.593 136.621C111.724 136.688 110.865 136.409 110.201 135.844C109.538 135.279 109.124 134.474 109.051 133.604C108.984 132.735 109.264 131.874 109.828 131.21C110.393 130.546 111.196 130.132 112.064 130.059L121.773 129.266C122.641 129.196 123.5 129.473 124.163 130.037C124.826 130.601 125.238 131.406 125.31 132.275C125.379 133.145 125.101 134.007 124.538 134.672C123.974 135.338 123.17 135.754 122.302 135.828Z" fill="#407BFF"/>
</g>
<g opacity="0.28">
<path d="M123.35 148.856L64.1225 153.68C63.2535 153.749 62.3928 153.47 61.7289 152.905C61.065 152.339 60.6521 151.533 60.5805 150.663C60.5121 149.793 60.791 148.931 61.3558 148.267C61.9206 147.602 62.7252 147.189 63.5932 147.118L122.834 142.263C123.702 142.197 124.561 142.477 125.224 143.042C125.887 143.607 126.301 144.411 126.376 145.28C126.413 145.714 126.364 146.151 126.232 146.566C126.099 146.981 125.887 147.366 125.605 147.698C125.324 148.031 124.98 148.304 124.593 148.503C124.206 148.701 123.783 148.821 123.35 148.856Z" fill="#407BFF"/>
</g>
<path d="M151.757 26.5464L160.113 67.2418C160.329 68.3036 160.116 69.4082 159.522 70.3141C158.927 71.22 157.999 71.8536 156.94 72.0764L79.6027 88.0915C78.5426 88.3104 77.4395 88.0991 76.5354 87.5039C75.6313 86.9088 75.0002 85.9784 74.7803 84.9169L66.418 44.2201C66.1986 43.157 66.4098 42.0497 67.0051 41.1419C67.6003 40.2341 68.5309 39.6 69.5922 39.3792L146.93 23.3641C147.991 23.1475 149.095 23.3606 149.999 23.9569C150.904 24.5532 151.536 25.4842 151.757 26.5464Z" fill="#407BFF"/>
<path opacity="0.3" d="M151.757 26.5464L160.113 67.2418C160.329 68.3036 160.116 69.4082 159.522 70.3141C158.927 71.22 157.999 71.8536 156.94 72.0764L79.6027 88.0915C78.5426 88.3104 77.4395 88.0991 76.5354 87.5039C75.6313 86.9088 75.0002 85.9784 74.7803 84.9169L66.418 44.2201C66.1986 43.157 66.4098 42.0497 67.0051 41.1419C67.6003 40.2341 68.5309 39.6 69.5922 39.3792L146.93 23.3641C147.991 23.1475 149.095 23.3606 149.999 23.9569C150.904 24.5532 151.536 25.4842 151.757 26.5464Z" fill="black"/>
<path d="M141.082 22.2574L138.61 22.7686L138.741 23.405L141.212 22.8938L141.082 22.2574Z" fill="#407BFF"/>
<path d="M135.149 23.4812L127.443 25.0752L127.573 25.7116L135.28 24.1176L135.149 23.4812Z" fill="#407BFF"/>
<path d="M65.5274 47.9367L64.8921 48.0684L65.8601 52.7776L66.4953 52.646L65.5274 47.9367Z" fill="#407BFF"/>
<path opacity="0.6" d="M149.878 23.8791L123.842 55.4466C121.427 58.372 118.088 60.3852 114.379 61.1533C110.669 61.9213 106.809 61.3983 103.439 59.6707L67.0886 41.0205C67.6905 40.1805 68.5831 39.5954 69.5921 39.3794L146.93 23.3643C147.942 23.1561 148.996 23.34 149.878 23.8791Z" fill="#407BFF"/>
<path d="M164.689 74.9688L109.377 66.2287C108.4 66.0721 107.402 66.11 106.44 66.3403C105.477 66.5706 104.569 66.9888 103.768 67.5708C102.967 68.1529 102.288 68.8875 101.77 69.7325C101.252 70.5775 100.906 71.5164 100.751 72.4954L84.5344 174.936C84.3778 175.915 84.4157 176.916 84.6458 177.88C84.8759 178.845 85.2937 179.754 85.8753 180.556C86.457 181.358 87.1909 182.037 88.0352 182.554C88.8795 183.071 89.8174 183.416 90.7953 183.569L161.588 194.755C162.564 194.911 163.561 194.872 164.522 194.641C165.483 194.409 166.389 193.991 167.189 193.408C167.989 192.825 168.666 192.091 169.182 191.246C169.697 190.401 170.042 189.462 170.195 188.484L183.983 101.556L164.689 74.9688Z" fill="#407BFF"/>
<path opacity="0.8" d="M164.689 74.9688L109.377 66.2287C108.4 66.0721 107.402 66.11 106.44 66.3403C105.477 66.5706 104.569 66.9888 103.768 67.5708C102.967 68.1529 102.288 68.8875 101.77 69.7325C101.252 70.5775 100.906 71.5164 100.751 72.4954L84.5344 174.936C84.3778 175.915 84.4157 176.916 84.6458 177.88C84.8759 178.845 85.2937 179.754 85.8753 180.556C86.457 181.358 87.1909 182.037 88.0352 182.554C88.8795 183.071 89.8174 183.416 90.7953 183.569L161.588 194.755C162.564 194.911 163.561 194.872 164.522 194.641C165.483 194.409 166.389 193.991 167.189 193.408C167.989 192.825 168.666 192.091 169.182 191.246C169.697 190.401 170.042 189.462 170.195 188.484L183.983 101.556L164.689 74.9688Z" fill="white"/>
<g opacity="0.22">
<path d="M144.492 181.512L98.4668 174.241C97.6079 174.102 96.8393 173.627 96.3288 172.921C95.8184 172.215 95.6076 171.336 95.7425 170.474C95.8825 169.614 96.3557 168.843 97.0594 168.33C97.763 167.817 98.6401 167.602 99.5 167.733L145.524 175.01C146.383 175.148 147.153 175.621 147.665 176.326C148.177 177.031 148.389 177.911 148.256 178.773C148.117 179.635 147.643 180.407 146.938 180.921C146.233 181.434 145.353 181.647 144.492 181.512Z" fill="#407BFF"/>
</g>
<g opacity="0.22">
<path d="M137.109 87.7859L112.768 83.9255C111.909 83.786 111.141 83.3126 110.629 82.6081C110.118 81.9035 109.904 81.0249 110.036 80.1632C110.176 79.3018 110.651 78.5306 111.356 78.0175C112.061 77.5044 112.939 77.291 113.8 77.4239L138.144 81.2716C139.003 81.4094 139.771 81.8825 140.282 82.5874C140.793 83.2922 141.004 84.1714 140.87 85.0325C140.734 85.8965 140.262 86.6718 139.557 87.188C138.852 87.7042 137.972 87.9192 137.109 87.7859Z" fill="#407BFF"/>
</g>
<g opacity="0.22">
<path d="M150.946 103.201L110.724 96.8396C109.864 96.7033 109.093 96.2306 108.581 95.5253C108.069 94.8199 107.857 93.9395 107.992 93.0773C108.131 92.2151 108.605 91.4428 109.31 90.9294C110.015 90.416 110.895 90.2033 111.756 90.338L151.971 96.6979C152.831 96.8342 153.602 97.3069 154.114 98.0122C154.626 98.7176 154.838 99.598 154.703 100.46C154.565 101.321 154.092 102.093 153.388 102.606C152.684 103.12 151.806 103.334 150.946 103.201Z" fill="#407BFF"/>
</g>
<g opacity="0.22">
<path d="M167.381 119.027L108.682 109.748C107.819 109.611 107.046 109.137 106.532 108.431C106.018 107.724 105.804 106.841 105.938 105.976C106.077 105.116 106.549 104.345 107.253 103.833C107.957 103.32 108.835 103.108 109.694 103.242L168.402 112.516C169.261 112.656 170.03 113.131 170.54 113.837C171.05 114.542 171.261 115.422 171.126 116.284C170.988 117.143 170.518 117.913 169.816 118.427C169.115 118.941 168.24 119.156 167.381 119.027Z" fill="#407BFF"/>
</g>
<g opacity="0.22">
<path d="M165.341 131.929L131.215 126.535C130.356 126.397 129.586 125.924 129.074 125.219C128.563 124.514 128.35 123.635 128.483 122.773C128.62 121.911 129.093 121.138 129.797 120.624C130.502 120.111 131.38 119.898 132.241 120.032L166.366 125.426C167.226 125.562 167.997 126.035 168.509 126.74C169.021 127.446 169.233 128.326 169.098 129.188C168.96 130.049 168.487 130.821 167.783 131.334C167.079 131.848 166.201 132.062 165.341 131.929Z" fill="#407BFF"/>
</g>
<g opacity="0.22">
<path d="M115.562 124.058L106.634 122.648C105.776 122.51 105.007 122.037 104.496 121.332C103.985 120.627 103.774 119.748 103.909 118.887C104.047 118.026 104.52 117.254 105.224 116.741C105.928 116.227 106.806 116.014 107.666 116.146L116.594 117.556C117.454 117.696 118.223 118.17 118.734 118.876C119.246 119.582 119.458 120.462 119.325 121.325C119.184 122.186 118.71 122.956 118.005 123.468C117.3 123.98 116.422 124.192 115.562 124.058Z" fill="#407BFF"/>
</g>
<g opacity="0.22">
<path d="M163.299 144.83L104.593 135.55C103.734 135.412 102.964 134.939 102.452 134.234C101.94 133.529 101.728 132.649 101.861 131.787C102.001 130.926 102.476 130.155 103.181 129.641C103.886 129.128 104.764 128.915 105.625 129.048L164.325 138.327C165.185 138.465 165.956 138.94 166.467 139.646C166.979 140.352 167.191 141.233 167.056 142.096C166.917 142.956 166.444 143.727 165.74 144.24C165.036 144.752 164.159 144.965 163.299 144.83Z" fill="#407BFF"/>
</g>
<g opacity="0.22">
<path d="M138.602 154.153L102.551 148.459C101.691 148.319 100.922 147.844 100.41 147.138C99.8989 146.432 99.6868 145.552 99.8202 144.69C99.9604 143.829 100.435 143.059 101.14 142.547C101.845 142.035 102.723 141.823 103.583 141.957L139.634 147.652C140.493 147.792 141.261 148.266 141.772 148.972C142.282 149.678 142.493 150.558 142.358 151.419C142.222 152.28 141.749 153.052 141.045 153.565C140.34 154.078 139.462 154.29 138.602 154.153Z" fill="#407BFF"/>
</g>
<g opacity="0.22">
<path d="M161.251 157.737L151.625 156.212C150.766 156.074 149.997 155.601 149.486 154.896C148.975 154.192 148.764 153.312 148.899 152.451C149.036 151.589 149.508 150.817 150.213 150.303C150.917 149.789 151.796 149.576 152.656 149.711L162.283 151.236C163.143 151.372 163.914 151.845 164.426 152.55C164.938 153.255 165.15 154.136 165.015 154.998C164.875 155.859 164.4 156.631 163.695 157.144C162.99 157.657 162.112 157.87 161.251 157.737Z" fill="#407BFF"/>
</g>
<g opacity="0.22">
<path d="M159.21 170.64L100.51 161.36C99.6507 161.222 98.881 160.749 98.3691 160.044C97.8572 159.339 97.6447 158.46 97.778 157.598C97.9164 156.737 98.3893 155.965 99.0933 155.452C99.7973 154.938 100.675 154.724 101.536 154.857L160.242 164.138C161.1 164.276 161.869 164.749 162.38 165.454C162.891 166.159 163.102 167.038 162.968 167.899C162.831 168.761 162.358 169.533 161.654 170.047C160.949 170.561 160.07 170.774 159.21 170.64Z" fill="#407BFF"/>
</g>
<path opacity="0.22" d="M164.688 74.9688L162.234 90.4816C162.078 91.4596 162.117 92.4585 162.347 93.4212C162.577 94.384 162.994 95.2917 163.574 96.0926C164.155 96.8935 164.887 97.5718 165.729 98.0889C166.572 98.6059 167.507 98.9516 168.483 99.1061L183.983 101.556L164.688 74.9688Z" fill="#407BFF"/>
<path opacity="0.5" d="M111.039 102.006C111.192 101.271 111.196 100.512 111.052 99.7749C110.908 99.0378 110.618 98.3374 110.198 97.7149C109.779 97.0925 109.24 96.5606 108.612 96.1507C107.984 95.7409 107.28 95.4614 106.542 95.3288L55.8291 84.068C51.9861 83.2147 47.5371 85.509 45.9602 89.1999L3.13123 187.508C1.52899 191.194 3.3416 194.878 7.18465 195.732L167.998 231.44C171.841 232.293 176.257 229.998 177.867 226.308L213.18 145.271C214.784 141.58 212.97 137.901 209.126 137.048L121.623 117.618C114.025 115.931 109.655 109.462 111.039 102.006Z" fill="#407BFF"/>
</svg>
