<svg width="255" height="37" viewBox="0 0 255 37" fill="none" xmlns="http://www.w3.org/2000/svg">
<path d="M165.488 1.56326C165.16 2.7828 164.128 8.45834 162.674 17.8863C162.298 20.0909 161.689 24.0778 161.266 26.7983C160.797 29.5188 160.375 32.8491 160.235 34.1625L160 36.6484L161.595 36.5077C162.861 36.4139 163.283 36.0856 163.94 34.7722C164.409 33.881 164.784 32.5677 164.784 31.8641C164.784 31.1605 165.019 30.4569 165.3 30.2693C166.145 29.7534 170.929 29.6126 171.773 30.0817C172.195 30.3162 172.852 31.5827 173.18 32.9898C174.025 36.2263 174.259 36.5077 176.276 36.2732C177.824 36.0856 177.918 35.9918 177.871 34.3501C177.871 33.412 177.683 31.5827 177.449 30.3162C177.214 29.0029 176.698 25.8602 176.323 23.2804C175.901 20.7006 175.244 16.6668 174.869 14.3684C174.494 12.0231 173.931 8.36453 173.649 6.15998C173.368 3.95543 172.899 1.8916 172.664 1.56326C172.336 1.23492 170.976 1.0004 168.912 1.0004C166.754 1.0004 165.629 1.18802 165.488 1.56326ZM169.897 11.1789C170.976 17.9801 171.82 25.0159 171.586 25.4381C171.21 26.0009 166.332 26.0009 166.004 25.4381C165.769 25.0628 166.473 19.1997 167.646 11.4134C168.349 7.05118 169.193 6.95737 169.897 11.1789Z" fill="white"/>
<path d="M5.49988 0.365314C1.51293 1.72557 0.105771 3.93012 0.105771 8.80827C0.105771 13.2174 1.04388 14.9998 5.82822 19.831C7.89205 21.9418 9.90898 24.287 10.2373 25.1313C11.6914 28.4616 10.5657 31.3697 7.89205 31.3697C5.92203 31.3697 4.70249 30.0564 4.37415 27.4766C4.09272 25.6473 3.99891 25.5066 2.49794 25.3658C1.65365 25.272 0.71554 25.4128 0.434108 25.6942C-0.410188 26.5385 0.0588655 31.4166 1.13769 33.1521C3.10771 36.3417 8.03277 37.4205 11.8321 35.4505C15.1624 33.7619 15.7721 32.5424 15.7721 27.6173C15.7252 22.5984 15.2093 21.5665 9.72136 16.1724C5.96894 12.4669 5.26536 11.2473 5.26536 8.43303C5.26536 6.08776 6.15656 4.96204 8.03277 4.96204C9.86208 4.96204 10.894 5.90014 11.3161 7.96398C11.6445 9.46495 11.7383 9.55876 13.7083 9.55876H15.8191L15.6783 7.21349C15.5845 5.90014 15.0686 4.16464 14.5526 3.27344C12.9578 0.693651 8.59563 -0.713508 5.49988 0.365314Z" fill="white"/>
<path d="M25.669 0.975522C25.5283 1.30386 25.4814 9.27776 25.5283 18.7057L25.669 35.8262H32.9394H40.2097V33.7154V31.6047L36.0351 31.464C33.6899 31.3702 31.5322 31.0887 31.2039 30.8073C30.3596 30.1037 30.3596 21.3793 31.2039 20.6758C31.5322 20.3943 33.1739 20.1129 34.8156 20.0191L37.8644 19.8784V17.7676V15.6569L34.3465 15.4224L30.8286 15.1878L30.6879 10.7787C30.5941 7.96441 30.7348 6.18201 31.1101 5.75986C31.4853 5.29081 32.8456 5.10319 36.082 5.10319H40.4911L40.3504 2.85173L40.2097 0.647185L33.0332 0.506469C27.5453 0.412658 25.8098 0.506469 25.669 0.975522Z" fill="white"/>
<path d="M50.0597 0.97537C49.919 1.30371 49.8721 9.27761 49.919 18.7056L50.0597 35.826L51.6545 35.9667C52.4987 36.0605 53.4369 35.9198 53.7183 35.6384C53.9997 35.357 54.2342 31.1355 54.2812 25.1785C54.3281 19.6906 54.4219 15.0939 54.4688 14.9532C54.5157 14.8124 54.9847 15.2346 55.4538 15.8444C56.1105 16.5948 56.3919 17.6268 56.3919 19.1277C56.3919 20.3004 56.6733 22.5518 57.0486 24.0997C57.4238 25.6476 57.846 28.2743 58.0336 29.9629C58.1743 31.6045 58.6433 33.6684 58.9717 34.5127C59.5345 35.826 59.8629 36.0605 61.27 36.0605C63.5215 36.0605 64.1782 34.9348 64.7879 29.7283C65.0694 27.3831 65.4915 24.428 65.726 23.1616C66.0075 21.8482 66.1951 19.7375 66.242 18.4711C66.242 15.8913 66.8049 14.6717 67.6023 15.1408C67.9306 15.3753 68.1182 18.5649 68.1182 25.2254C68.1182 32.1674 68.2589 35.0755 68.6811 35.4977C69.0094 35.826 70.0413 36.0605 70.9794 36.0605C72.3866 36.0605 72.7618 35.8729 72.9964 34.9348C73.3247 33.5746 73.2778 2.94539 72.9495 1.44442C72.7149 0.506317 72.4335 0.412506 69.4785 0.412506C65.6322 0.412506 65.5384 0.506317 64.8348 6.04114C63.287 18.518 62.1143 24.5687 61.27 24.5687C61.0355 24.5687 60.801 23.9121 60.7072 23.1616C60.6603 22.3642 60.285 19.7375 59.8629 17.2984C59.4876 14.8593 58.831 10.8255 58.4557 8.38641C58.0805 5.94733 57.6114 3.17992 57.4238 2.28872L57.0955 0.647033L53.6714 0.506317C51.2323 0.412506 50.2004 0.553222 50.0597 0.97537Z" fill="white"/>
<path d="M83.4094 1.11609C83.0341 2.1011 83.0341 33.5746 83.4094 34.9817C83.6908 36.0136 83.9253 36.0605 88.0061 36.0605C93.7754 36.0605 96.7774 35.1693 98.466 32.9179C99.5917 31.4169 99.7793 30.7133 99.9669 27.2893C100.155 22.1297 99.7793 20.4411 98.0907 18.7056C97.0588 17.7206 96.7305 17.017 96.965 16.3603C97.1057 15.8444 97.4341 15.4222 97.7155 15.4222C98.5598 15.4222 99.5448 11.9512 99.5448 8.90237C99.4979 2.47634 97.2933 0.740844 88.9442 0.506317C84.4413 0.365601 83.6908 0.459412 83.4094 1.11609ZM93.3533 5.85352C94.2445 6.46329 94.3852 6.97925 94.3852 10.0281C94.3852 13.2177 94.2914 13.546 93.1657 14.4372C91.5709 15.7036 89.4132 15.7036 88.7566 14.531C88.0999 13.2177 88.1468 6.36948 88.8504 5.6659C89.6478 4.86851 92.0868 4.96232 93.3533 5.85352ZM93.7754 20.5349C95.3702 22.0359 95.7455 28.1805 94.4321 30.385C93.8692 31.2762 89.8823 31.6514 88.9911 30.901C88.4751 30.4319 88.2875 29.2593 88.2875 25.7414C88.2875 23.2085 88.4282 20.8163 88.5689 20.3942C88.9911 19.2684 92.5559 19.4092 93.7754 20.5349Z" fill="white"/>
<path d="M110.193 0.740844C109.771 1.11609 109.771 34.3251 110.146 35.3101C110.521 36.2951 113.289 36.2951 114.274 35.357C114.836 34.7941 114.977 33.3869 114.977 28.3212C114.977 24.8502 115.071 21.8013 115.259 21.5199C115.868 20.5349 118.354 21.0039 119.762 22.4111C121.075 23.7714 121.122 23.8652 121.122 28.884C121.122 35.9198 121.169 36.0605 123.983 36.0605H126.281V31.2293C126.281 25.1316 125.39 21.2854 123.748 19.9251L122.482 18.9401L123.842 17.2984C126.657 13.9212 126.61 4.96232 123.842 2.47634C123.233 1.91348 121.872 1.2568 120.84 0.97537C118.777 0.365601 110.709 0.17798 110.193 0.740844ZM120.043 6.13496C120.981 7.02616 121.122 7.58902 121.122 10.7317C121.122 15.3284 120.184 16.8294 117.369 16.8294C116.384 16.8294 115.399 16.6417 115.259 16.3603C114.883 15.7036 114.836 6.27567 115.212 5.619C115.775 4.7278 118.87 5.00923 120.043 6.13496Z" fill="white"/>
<path d="M136.459 0.693201C136.272 0.880822 136.131 8.6671 136.131 18.0013C136.131 32.1198 136.225 35.1217 136.788 35.5438C137.257 35.9191 139.461 36.0598 143.87 35.966C150.015 35.8253 150.249 35.7784 150.531 34.7465C150.672 34.1836 150.625 33.1986 150.484 32.5419C150.202 31.4631 150.062 31.4162 145.606 31.2755L141.056 31.1347L140.915 26.2566C140.821 23.1139 140.962 21.1908 141.337 20.7687C141.666 20.3465 142.838 20.112 144.574 20.112C148.373 20.112 148.795 19.8775 148.795 17.7198V15.8905H145.887C140.634 15.8905 140.821 16.0781 140.821 10.4495C140.821 4.82087 140.399 5.19611 146.685 5.00849L150.437 4.86777V2.75703V0.646295L143.589 0.505579C139.836 0.458674 136.647 0.552485 136.459 0.693201Z" fill="white"/>
<path d="M187.586 0.694096C187.07 1.25696 187.164 34.8412 187.727 35.404C187.961 35.6386 188.946 35.7793 189.837 35.6855L191.479 35.4978V30.9011C191.479 27.3363 191.714 25.7884 192.417 24.0998C193.215 22.2236 193.449 21.9891 194.2 22.4113C194.997 22.8334 195.794 24.6158 198.703 32.5897C199.547 34.8881 200.344 35.5916 202.127 35.5916C204.144 35.5916 204.425 34.7943 203.299 32.2145C202.83 31.1356 202.033 29.2594 201.564 28.0868C201.095 26.9142 200.485 25.3194 200.157 24.5689C199.828 23.7715 199.172 22.0829 198.749 20.8165C198.28 19.5031 197.718 18.2836 197.483 18.0022C196.686 17.111 197.202 15.4693 200.673 8.48038C203.018 3.78985 204.097 1.11624 203.768 0.787907C203.534 0.55338 202.643 0.412664 201.798 0.506475C200.438 0.647191 200.063 0.975528 198.937 3.22698C196.967 7.12012 194.293 12.8895 194.293 13.2647C194.293 13.9214 192.277 15.4693 191.901 15.094C191.667 14.8595 191.432 11.5292 191.385 7.68299L191.245 0.647191L189.603 0.506475C188.665 0.412664 187.774 0.506475 187.586 0.694096Z" fill="white"/>
<path d="M214.275 1.58507C213.853 3.08604 213.994 34.3719 214.369 35.0286C214.697 35.4507 216.386 35.5914 221.311 35.4976L227.831 35.3569L227.971 33.5745C228.159 31.6045 228.347 31.6983 223.609 31.839C218.872 31.9328 218.59 31.6514 218.356 26.0696C218.168 21.9889 218.215 21.5198 219.153 20.5817C219.998 19.7374 220.607 19.5967 223.046 19.6905L225.954 19.8312L226.095 17.8612L226.236 15.8912H222.953C218.45 15.8912 218.168 15.5159 218.262 10.2156C218.309 7.77657 218.59 5.85345 218.919 5.57202C219.2 5.3375 221.311 5.10297 223.656 5.00916L227.831 4.86844L227.971 2.85151C228.065 1.77269 227.971 0.881491 227.737 0.881491C227.549 0.834586 224.454 0.787681 220.936 0.740775C214.885 0.646965 214.51 0.69387 214.275 1.58507Z" fill="white"/>
<path d="M238.572 0.834957C238.479 0.928768 238.385 8.80886 238.385 18.3306V35.5918H240.73H243.075V28.556C243.075 22.0362 243.122 21.5202 244.013 21.0511C245.186 20.4414 247.25 20.9104 248.61 22.13C249.595 23.0212 249.642 23.4902 249.642 28.8374C249.642 35.2166 249.83 35.5918 252.879 35.5918H254.333V29.8693C254.333 23.6778 253.535 20.3945 251.893 19.8316C250.768 19.5033 250.815 18.659 252.034 17.3925C253.582 15.657 254.333 13.3118 254.333 9.88768C254.333 4.44667 252.503 1.67925 248.563 1.11639C245.937 0.788052 238.854 0.553526 238.572 0.834957ZM248.892 5.85383C249.454 6.41669 249.642 7.58932 249.642 10.732C249.642 14.672 249.595 15.0004 248.376 16.1261C246.968 17.3925 244.623 17.7209 243.638 16.7359C243.028 16.1261 242.794 5.99454 243.404 5.43168C244.013 4.775 248.141 5.10334 248.892 5.85383Z" fill="white"/>
</svg>
